HIERARCHY
ROOT Hips
{
	OFFSET 0.000000 0.000000 0.000000
	CHANNELS 6 Xposition Yposition Zposition Zrotation Yrotation Xrotation 
	JOINT LHipJoint
	{
		OFFSET 0.000000 0.000000 0.000000
		CHANNELS 3 Zrotation Yrotation Xrotation
		JOINT LeftUpLeg
		{
			OFFSET 1.363060 -1.794630 0.839290
			CHANNELS 3 Zrotation Yrotation Xrotation
			JOINT LeftLeg
			{
				OFFSET 2.448110 -6.726130 0.000000
				CHANNELS 3 Zrotation Yrotation Xrotation
				JOINT LeftFoot
				{
					OFFSET 2.562200 -7.039590 0.000000
					CHANNELS 3 Zrotation Yrotation Xrotation
					JOINT LeftToeBase
					{
						OFFSET 0.157640 -0.433110 2.322550
						CHANNELS 3 Zrotation Yrotation Xrotation
						End Site
						{
							OFFSET 0.000000 0.000000 0.000000
						}
					}
				}
			}
		}
	}
	JOINT RHipJoint
	{
		OFFSET 0.000000 0.000000 0.000000
		CHANNELS 3 Zrotation Yrotation Xrotation
		JOINT RightUpLeg
		{
			OFFSET -1.305520 -1.794630 0.839290
			CHANNELS 3 Zrotation Yrotation Xrotation
			JOINT RightLeg
			{
				OFFSET -2.542530 -6.985550 0.000000
				CHANNELS 3 Zrotation Yrotation Xrotation
				JOINT RightFoot
				{
					OFFSET -2.568260 -7.056230 0.000000
					CHANNELS 3 Zrotation Yrotation Xrotation
					JOINT RightToeBase
					{
						OFFSET -0.164730 -0.452590 2.363150
						CHANNELS 3 Zrotation Yrotation Xrotation
						End Site
						{
							OFFSET 0.000000 0.000000 0.000000
						}
					}
				}
			}
		}
	}
}
MOTION
Frames: 19
Frame Time: 0.008333
-8.279947 17.015508 -0.847492 11.150860 80.856287 42.355137 -7.414848 -1.564972 1.461903 -12.919361 -1.816610 -56.173807 -3.805074 -1.528808 8.491399 2.317720 9.416490 -8.197397 0.656800 -0.000000 -35.772500 11.441135 -0.852012 -5.034973 7.293912 -12.438667 -26.180833 1.064800 -3.399420 42.485375 -1.009433 -4.355653 5.277871 -1.077000 -0.000000 -65.815600
-8.031839 17.007261 -0.838229 10.151179 80.518590 41.322678 -7.389288 -1.597384 1.450875 -13.116041 -1.329729 -56.113129 -3.895121 -1.651467 7.725722 2.294080 9.203792 -8.494621 0.580000 0.000000 -36.251100 11.528875 -0.855297 -5.089213 6.998204 -12.820639 -26.252917 0.981180 -3.500612 43.676525 -1.126213 -5.072252 5.350568 -1.233200 -0.000000 -62.585700
-7.785912 16.987776 -0.829752 9.286767 80.201157 40.439079 -7.372535 -1.621891 1.433562 -13.217399 -0.937366 -56.164641 -3.952307 -1.701551 7.466596 2.284949 9.063156 -8.755281 0.517501 -0.000000 -36.753500 11.611087 -0.849307 -5.145677 6.705593 -13.159199 -26.430050 0.903680 -3.617793 45.088851 -1.233219 -5.733365 5.018748 -1.344200 0.000000 -59.508400
-7.542263 16.956827 -0.822124 8.535772 79.911109 39.689697 -7.367193 -1.636185 1.415001 -13.208026 -0.657951 -56.342697 -3.974259 -1.673584 7.719623 2.287871 9.007849 -8.910071 0.484400 -0.000000 -37.319900 11.689406 -0.836653 -5.201000 6.420139 -13.443505 -26.720320 0.828672 -3.752386 46.716837 -1.321923 -6.279845 4.360328 -1.391900 0.000000 -56.808800
-7.301029 16.914229 -0.815165 7.901325 79.653306 39.080887 -7.373756 -1.637716 1.394633 -13.103073 -0.489654 -56.668327 -3.963024 -1.562519 8.499242 2.296557 9.025395 -8.910573 0.489600 -0.000000 -37.974100 11.766936 -0.819432 -5.250717 6.140050 -13.668529 -27.129402 0.751867 -3.905085 48.552243 -1.385627 -6.664821 3.462351 -1.368999 -0.000000 -54.644900
-7.062351 16.859902 -0.808680 7.381070 79.430508 38.609313 -7.392206 -1.624868 1.366134 -12.944185 -0.404535 -57.173580 -3.924222 -1.363229 9.830433 2.300479 9.072263 -8.735139 0.535100 -0.000001 -38.719400 11.845789 -0.800177 -5.289159 5.865706 -13.830760 -27.659864 0.668539 -4.075244 50.582317 -1.420122 -6.860373 2.411610 -1.281000 0.000000 -53.100500
-6.826325 16.793857 -0.802427 6.953658 79.241834 38.248392 -7.423069 -1.598027 1.316996 -12.791562 -0.347012 -57.896617 -3.865407 -1.070168 11.748976 2.285773 9.076114 -8.397254 0.612299 -0.000000 -39.505800 11.926062 -0.782207 -5.310382 5.601630 -13.927184 -28.305887 0.573721 -4.260435 52.788280 -1.424029 -6.859080 1.287491 -1.143200 0.000000 -52.188201
-6.593135 16.716269 -0.796213 6.582625 79.083125 37.952311 -7.467473 -1.561491 1.233405 -12.698315 -0.254807 -58.861653 -3.790013 -0.681943 14.271519 2.241612 8.971637 -7.938407 0.704300 -0.000000 -40.224600 12.005768 -0.768220 -5.310383 5.355336 -13.955433 -29.054057 0.462637 -4.456749 55.145686 -1.398895 -6.672692 0.155292 -0.975700 0.000000 -51.860500
-6.363059 16.627691 -0.789176 6.332965 78.947607 37.772061 -7.518689 -1.520843 1.106936 -12.703555 -0.105843 -60.036464 -3.694358 -0.212247 17.338577 2.169229 8.755633 -7.405155 0.794300 -0.000000 -40.768300 12.090264 -0.755242 -5.290667 5.104951 -13.932497 -29.885018 0.332069 -4.662586 57.628199 -1.347602 -6.318597 -0.940118 -0.796500 0.000000 -52.020300
-6.136231 16.528856 -0.781663 6.089272 78.825517 37.582489 -7.581232 -1.487892 0.930002 -12.808226 0.153185 -61.409928 -3.572754 0.327994 20.913514 2.070190 8.407123 -6.893918 0.855401 0.000000 -40.933500 12.170026 -0.745750 -5.252468 4.876859 -13.847436 -30.771526 0.178438 -4.870707 60.202176 -1.277686 -5.846058 -1.967739 -0.624400 0.000000 -52.531100
-5.913009 16.420960 -0.772826 5.927621 78.709913 37.446943 -7.645182 -1.469403 0.704852 -13.009981 0.505837 -62.897985 -3.419087 0.907568 24.857377 1.960313 7.987648 -6.479919 0.876000 0.000000 -40.644100 12.250230 -0.733378 -5.203944 4.645540 -13.721616 -31.688234 0.001232 -5.079916 62.837322 -1.195851 -5.295619 -2.919835 -0.469600 -0.000000 -53.234800
-5.693627 16.305716 -0.762605 5.828368 78.595150 37.338093 -7.707101 -1.471451 0.436811 -13.285636 0.945871 -64.429383 -3.232903 1.497824 29.040774 1.854100 7.546044 -6.256324 0.847199 0.000000 -39.835700 12.327986 -0.714759 -5.153198 4.413682 -13.560398 -32.609476 -0.199308 -5.286414 65.500076 -1.110975 -4.724566 -3.799478 -0.339100 0.000000 -53.971000
-5.478370 16.185166 -0.750480 5.856032 78.482990 37.312730 -7.758768 -1.492865 0.133900 -13.624600 1.441978 -65.916602 -3.021045 2.069183 33.313943 1.766062 7.142146 -6.295563 0.770800 -0.000000 -38.591099 12.407054 -0.684281 -5.109916 4.163720 -13.384060 -33.514846 -0.420782 -5.490346 68.160385 -1.030709 -4.183435 -4.622880 -0.234200 0.000000 -54.594900
-5.267481 16.061669 -0.736106 6.064698 78.379999 37.420164 -7.794917 -1.528416 -0.195759 -14.017621 1.962442 -67.283613 -2.794842 2.599976 37.545147 1.705712 6.818318 -6.651932 0.651500 0.000000 -37.065899 12.490200 -0.637885 -5.082463 3.884567 -13.210534 -34.389607 -0.659890 -5.692536 70.789863 -0.961829 -3.719576 -5.411270 -0.153000 0.000000 -54.993399
-5.061047 15.937764 -0.719238 6.508825 78.296391 37.711734 -7.812790 -1.570264 -0.544855 -14.457820 2.475510 -68.465547 -2.566584 3.076705 41.626087 1.677582 6.599293 -7.352410 0.494000 0.000000 -35.463300 12.580171 -0.572859 -5.077310 3.566460 -13.058265 -35.224182 -0.912741 -5.894714 73.362857 -0.909287 -3.369648 -6.187287 -0.091400 -0.000000 -55.091600
-4.859078 15.815945 -0.699819 7.227903 78.243527 38.225139 -7.812772 -1.610407 -0.906520 -14.935570 2.953486 -69.412686 -2.346985 3.492822 45.473579 1.682120 6.492499 -8.395083 0.300700 -0.000000 -33.981701 12.678165 -0.487979 -5.098645 3.206688 -12.942456 -36.014751 -1.175479 -6.098389 75.857462 -0.876046 -3.156840 -6.970659 -0.043300 0.000001 -54.852400
-4.661489 15.698484 -0.677929 8.248238 78.230943 38.986774 -7.797173 -1.642171 -1.274299 -15.437794 3.373479 -70.089344 -2.143980 3.846422 49.029025 1.717011 6.491911 -9.750070 0.071501 0.000000 -32.782300 12.784520 -0.382825 -5.148416 2.805827 -12.875110 -36.762463 -1.444547 -6.304831 78.256769 -0.862860 -3.087687 -7.776685 -0.002300 0.000000 -54.271000
-4.467990 15.587487 -0.653957 9.560785 78.264392 39.990018 -7.771468 -1.661041 -1.640610 -15.943871 3.721614 -70.476827 -1.962849 4.138813 52.252663 1.778005 6.580987 -11.362735 -0.194100 0.000000 -31.969899 12.896345 -0.258241 -5.225764 2.375183 -12.860016 -37.472393 -1.716581 -6.513088 80.545141 -0.868740 -3.154355 -8.610903 0.038200 -0.000001 -53.369700
-4.278187 15.484626 -0.628276 11.141889 78.345350 41.215610 -7.742013 -1.664621 -1.997327 -16.430319 3.991050 -70.571419 -1.806437 4.373250 55.121966 1.859822 6.738825 -13.159616 -0.494599 -0.000000 -31.595900 13.009590 -0.115682 -5.327616 1.930492 -12.895721 -38.153451 -1.988475 -6.721059 82.711101 -0.891034 -3.335242 -9.470922 0.083600 0.000000 -52.189801
